REM DIRINDEX 1\2,1\3,1\4,1\5
REM DIRNAME "folder01","folder02","folder03","folder04","folder05"
TITLE ""
FILE "P1Q_t_0210-0219.mp3" MP3
  TRACK 01 AUDIO
    TITLE "3:cjc173_1545"
    INDEX 01 00:00:00
  TRACK 02 AUDIO
    TITLE "0:"
    INDEX 01 00:01:22
  TRACK 03 AUDIO
    TITLE "4:cjc173_1546"
    INDEX 01 00:01:41
  TRACK 04 AUDIO
    TITLE "0:"
    INDEX 01 00:04:47
  TRACK 05 AUDIO
    TITLE "5:cjc173_1547"
    INDEX 01 00:04:67
  TRACK 06 AUDIO
    TITLE "0:"
    INDEX 01 00:08:39
  TRACK 07 AUDIO
    TITLE "3:cjc173_1548"
    INDEX 01 00:09:09
  TRACK 08 AUDIO
    TITLE "0:"
    INDEX 01 00:10:24
  TRACK 09 AUDIO
    TITLE "4:cjc173_1549"
    INDEX 01 00:10:48
  TRACK 10 AUDIO
    TITLE "0:"
    INDEX 01 00:13:60
  TRACK 11 AUDIO
    TITLE "5:cjc173_1550"
    INDEX 01 00:14:07
  TRACK 12 AUDIO
    TITLE "0:"
    INDEX 01 00:19:04
  TRACK 13 AUDIO
    TITLE "3:cjc173_1551"
    INDEX 01 00:19:51
  TRACK 14 AUDIO
    TITLE "0:"
    INDEX 01 00:21:05
  TRACK 15 AUDIO
    TITLE "4:cjc173_1552"
    INDEX 01 00:21:26
  TRACK 16 AUDIO
    TITLE "0:"
    INDEX 01 00:24:36
  TRACK 17 AUDIO
    TITLE "5:cjc173_1553"
    INDEX 01 00:24:58
  TRACK 18 AUDIO
    TITLE "0:"
    INDEX 01 00:29:22
  TRACK 19 AUDIO
    TITLE "3:cjc173_1554"
    INDEX 01 00:29:67
  TRACK 20 AUDIO
    TITLE "0:"
    INDEX 01 00:30:64
  TRACK 21 AUDIO
    TITLE "4:cjc173_1555"
    INDEX 01 00:31:09
  TRACK 22 AUDIO
    TITLE "0:"
    INDEX 01 00:35:64
  TRACK 23 AUDIO
    TITLE "5:cjc173_1556"
    INDEX 01 00:36:12
  TRACK 24 AUDIO
    TITLE "0:"
    INDEX 01 00:39:65
  TRACK 25 AUDIO
    TITLE "3:cjc173_1557"
    INDEX 01 00:40:37
  TRACK 26 AUDIO
    TITLE "0:"
    INDEX 01 00:41:50
  TRACK 27 AUDIO
    TITLE "4:cjc173_1558"
    INDEX 01 00:41:72
  TRACK 28 AUDIO
    TITLE "0:"
    INDEX 01 00:45:68
  TRACK 29 AUDIO
    TITLE "5:cjc173_1559"
    INDEX 01 00:46:12
  TRACK 30 AUDIO
    TITLE "0:"
    INDEX 01 00:50:34
  TRACK 31 AUDIO
    TITLE "3:cjc173_1560"
    INDEX 01 00:51:08
  TRACK 32 AUDIO
    TITLE "0:"
    INDEX 01 00:52:31
  TRACK 33 AUDIO
    TITLE "4:cjc173_1561"
    INDEX 01 00:52:52
  TRACK 34 AUDIO
    TITLE "0:"
    INDEX 01 00:56:11
  TRACK 35 AUDIO
    TITLE "5:cjc173_1562"
    INDEX 01 00:56:30
  TRACK 36 AUDIO
    TITLE "0:"
    INDEX 01 01:02:72
  TRACK 37 AUDIO
    TITLE "3:cjc173_1563"
    INDEX 01 01:03:44
  TRACK 38 AUDIO
    TITLE "0:"
    INDEX 01 01:04:69
  TRACK 39 AUDIO
    TITLE "4:cjc173_1564"
    INDEX 01 01:05:16
  TRACK 40 AUDIO
    TITLE "0:"
    INDEX 01 01:07:03
  TRACK 41 AUDIO
    TITLE "5:cjc173_1565"
    INDEX 01 01:07:22
  TRACK 42 AUDIO
    TITLE "0:"
    INDEX 01 01:10:68
  TRACK 43 AUDIO
    TITLE "3:cjc173_1566"
    INDEX 01 01:11:42
  TRACK 44 AUDIO
    TITLE "0:"
    INDEX 01 01:12:65
  TRACK 45 AUDIO
    TITLE "4:cjc173_1567"
    INDEX 01 01:13:11
  TRACK 46 AUDIO
    TITLE "0:"
    INDEX 01 01:18:08
  TRACK 47 AUDIO
    TITLE "5:cjc173_1568"
    INDEX 01 01:18:28
  TRACK 48 AUDIO
    TITLE "0:"
    INDEX 01 01:23:16
  TRACK 49 AUDIO
    TITLE "3:cjc173_1569"
    INDEX 01 01:23:61
  TRACK 50 AUDIO
    TITLE "0:"
    INDEX 01 01:25:01
  TRACK 51 AUDIO
    TITLE "4:cjc173_1570"
    INDEX 01 01:25:22
  TRACK 52 AUDIO
    TITLE "0:"
    INDEX 01 01:28:38
  TRACK 53 AUDIO
    TITLE "5:cjc173_1571"
    INDEX 01 01:28:58
  TRACK 54 AUDIO
    TITLE "0:"
    INDEX 01 01:32:34
  TRACK 55 AUDIO
    TITLE "3:cjc173_1572"
    INDEX 01 01:33:04
  TRACK 56 AUDIO
    TITLE "0:"
    INDEX 01 01:34:19
  TRACK 57 AUDIO
    TITLE "4:cjc173_1573"
    INDEX 01 01:34:47
  TRACK 58 AUDIO
    TITLE "0:"
    INDEX 01 01:39:32
  TRACK 59 AUDIO
    TITLE "5:cjc173_1574"
    INDEX 01 01:39:50
  TRACK 60 AUDIO
    TITLE "0:"
    INDEX 01 01:44:00
